<?xml version="1.0" encoding="UTF-8"?>
<svg version="1.1" xmlns="http://www.w3.org/2000/svg" width="52" height="79">
<path d="M0 0 C2 1 2 1 2.73828125 3.07421875 C3.68731259 7.39327974 4.24299809 10.19953569 2.9375 14.5 C0.7043052 17.38154168 -0.47217186 18.17957485 -4 19 C-5.98 19 -7.96 19 -10 19 C-10 24.28 -10 29.56 -10 35 C-5.00367635 33.75091909 -4.69356922 32.17068783 -2 28 C1 27 1 27 3.125 27.8125 C5 29 5 29 6 31 C6.26140874 34.07155269 6.43904748 36.199384 4.9375 38.9375 C1.90159296 40.60235225 -0.69232271 39.60139587 -4 39 C-4.99 39.495 -4.99 39.495 -6 40 C-11.38695501 40.45846426 -11.38695501 40.45846426 -13.6730957 38.7487793 C-15.32092701 36.57703769 -15.35042996 35.4702083 -15.29296875 32.76953125 C-15.28330078 31.96708984 -15.27363281 31.16464844 -15.26367188 30.33789062 C-15.23853516 29.50451172 -15.21339844 28.67113281 -15.1875 27.8125 C-15.17396484 26.96751953 -15.16042969 26.12253906 -15.14648438 25.25195312 C-15.11115799 23.16769616 -15.05735139 21.08376723 -15 19 C-14.34 19 -13.68 19 -13 19 C-13.474375 18.278125 -13.94875 17.55625 -14.4375 16.8125 C-16.89111976 12.39598444 -17.2837391 10.15387236 -16.0625 5.1875 C-15.711875 4.135625 -15.36125 3.08375 -15 2 C-14.01 2 -13.02 2 -12 2 C-10.64984141 6.05047576 -11.37915002 8.7920168 -12 13 C-7.82569213 13.96884725 -7.82569213 13.96884725 -3.6875 13.25 C-1.68716985 12.01833257 -1.68716985 12.01833257 -1 9 C-1.59793673 6.64811553 -2.25881795 4.31074405 -3 2 C-2.01 1.34 -1.02 0.68 0 0 Z M0 32 C-0.33 32.99 -0.66 33.98 -1 35 C-0.01 35.33 0.98 35.66 2 36 C2.33 35.34 2.66 34.68 3 34 C2.67 33.34 2.34 32.68 2 32 C1.34 32 0.68 32 0 32 Z " fill="#3B3B3B" transform="translate(20,24)"/>
<path d="M0 0 C2.8125 0.1875 2.8125 0.1875 6 1 C8.27863153 3.88626661 9 5.3047018 9 9 C10.98 8.67 12.96 8.34 15 8 C14.34 5.69 13.68 3.38 13 1 C14.65 0.67 16.3 0.34 18 0 C19.19334591 3.58003773 19.33543224 6.24315896 19 10 C17.4375 11.9375 17.4375 11.9375 15 13 C11.25 13.1875 11.25 13.1875 8 13 C7.938125 13.5775 7.87625 14.155 7.8125 14.75 C6.64473159 17.98382021 4.83624161 19.13065894 2 21 C-0.8125 21.75 -0.8125 21.75 -3 22 C-3.33 20.68 -3.66 19.36 -4 18 C-1.69 16.68 0.62 15.36 3 14 C2.01 13.46375 1.02 12.9275 0 12.375 C-3 10 -3 10 -3.5625 7 C-2.96866089 3.83285811 -2.16255135 2.34276397 0 0 Z M2 4 C1.67 5.32 1.34 6.64 1 8 C2.32 8.33 3.64 8.66 5 9 C4.34 7.35 3.68 5.7 3 4 C2.67 4 2.34 4 2 4 Z " fill="#3A3A3A" transform="translate(31,51)"/>
<path d="M0 0 C1.33599921 0.32248257 2.66893378 0.65772583 4 1 C5.32 1 6.64 1 8 1 C8 1.99 8 2.98 8 4 C6.68 4 5.36 4 4 4 C2.65835921 4.2981424 1.32148827 4.62243192 0 5 C-0.5625 3.0625 -0.5625 3.0625 -1 1 C-0.67 0.67 -0.34 0.34 0 0 Z " fill="#3A3A3A" transform="translate(42,44)"/>
<path d="M0 0 C1.98 0.495 1.98 0.495 4 1 C3.67 2.32 3.34 3.64 3 5 C1.68 4.67 0.36 4.34 -1 4 C-0.67 2.68 -0.34 1.36 0 0 Z " fill="#3A3A3A" transform="translate(12,22)"/>
</svg>
